<svg style="fill:#353239;" height="512pt" viewBox="0 0 512 512" width="512pt" xmlns="http://www.w3.org/2000/svg"><path d="m87.332031 173.738281v30.753907l49.886719-51.546876v260.390626h24.003906v-260.390626l49.886719 51.546876v-30.757813l-61.875-67.816406zm0 0"/><path d="m0 0v512h512v-512zm241.109375 278.628906-49.886719-51.550781v216.257813h-84.003906v-216.253907l-49.886719 51.546875v-116.523437l91.90625-100.691407 91.871094 100.691407zm213.558594 71.265625-91.90625 100.695313-91.871094-100.695313v-116.523437l49.886719 51.550781v-216.257813h84.003906v216.253907l49.890625-51.546875v116.523437zm0 0"/><path d="m374.78125 98.664062h-24.003906v260.390626l-49.886719-51.546876v30.757813l61.875 67.816406 61.902344-67.820312v-30.753907l-49.886719 51.546876zm0 0"/></svg>