<svg height="512pt" viewBox="-43 0 512 512" width="512pt" xmlns="http://www.w3.org/2000/svg"><path d="m401.066406 512c14.132813-.015625 25.585938-11.46875 25.601563-25.601562v-460.796876c-.015625-14.132812-11.46875-25.585937-25.601563-25.601562h-375.464844c-14.132812.015625-25.585937 11.46875-25.601562 25.601562v460.796876c.015625 14.132812 11.46875 25.585937 25.601562 25.601562zm-384-25.601562v-460.796876c.003906-4.710937 3.824219-8.53125 8.535156-8.535156h375.464844c4.710938.003906 8.53125 3.824219 8.535156 8.535156v460.796876c-.003906 4.710937-3.824218 8.53125-8.535156 8.535156h-375.464844c-4.710937-.003906-8.53125-3.824219-8.535156-8.535156zm0 0"/><path d="m51.199219 477.867188h324.265625c9.421875-.011719 17.058594-7.644532 17.070312-17.066407v-409.601562c-.011718-9.421875-7.648437-17.054688-17.070312-17.066407h-324.265625c-9.421875.011719-17.054688 7.644532-17.066407 17.066407v409.601562c.011719 9.421875 7.644532 17.054688 17.066407 17.066407zm0-426.667969h324.265625v409.601562l-324.265625.007813zm0 0"/><path d="m230.398438 136.535156c0-2.460937-1.0625-4.804687-2.910157-6.425781l-68.265625-59.734375c-3.21875-2.816406-8.027344-2.816406-11.242187 0l-68.269531 59.734375c-1.847657 1.621094-2.910157 3.964844-2.910157 6.425781v51.199219c-.003906 3.347656 1.957031 6.390625 5.007813 7.773437 3.050781 1.382813 6.628906.851563 9.144531-1.355468l28.511719-24.976563v197.757813c0 4.710937 3.824218 8.53125 8.535156 8.53125h51.199219c4.714843 0 8.535156-3.820313 8.535156-8.53125v-197.757813l28.511719 24.976563c2.519531 2.207031 6.097656 2.738281 9.148437 1.355468 3.050781-1.382812 5.007813-4.425781 5.003907-7.773437zm-17.066407 32.382813-28.511719-24.976563c-2.515624-2.210937-6.09375-2.742187-9.144531-1.359375-3.050781 1.382813-5.011719 4.425781-5.007812 7.773438v208.042969h-34.132813v-208.042969c0-3.347657-1.957031-6.390625-5.007812-7.773438-3.050782-1.382812-6.628906-.851562-9.148438 1.359375l-28.511718 24.976563v-28.507813l59.734374-52.269531 59.730469 52.269531zm0 0"/><path d="m344.90625 342.613281c-3.023438-1.382812-6.574219-.890625-9.109375 1.257813l-20.0625 17.121094v-122.058594c0-4.714844-3.820313-8.535156-8.535156-8.535156h-34.132813c-4.710937 0-8.53125 3.820312-8.53125 8.535156v122.058594l-20.066406-17.117188c-2.53125-2.160156-6.085938-2.648438-9.109375-1.253906-3.023437 1.394531-4.957031 4.417968-4.960937 7.746094v37.648437c.003906 2.339844.964843 4.578125 2.660156 6.191406l49.695312 47.183594c3.222656 3.0625 8.253906 3.136719 11.566406.171875l52.703126-47.183594c1.8125-1.621094 2.84375-3.933594 2.84375-6.363281v-37.648437c-.003907-3.328126-1.9375-6.355469-4.960938-7.753907zm-12.105469 41.585938-44 39.394531-41.335937-39.242188v-15.492187l20.066406 17.117187c2.53125 2.15625 6.085938 2.648438 9.109375 1.253907s4.957031-4.417969 4.960937-7.746094v-132.019531h17.066407v132.019531c0 3.328125 1.933593 6.351563 4.957031 7.746094s6.578125.902343 9.113281-1.253907l20.0625-17.117187zm0 0"/></svg>