<svg width="202" height="106" viewBox="0 0 202 106" fill="none" xmlns="http://www.w3.org/2000/svg">
<g filter="url(#filter0_d)">
<path d="M101 75C104.298 75 106.965 72.8621 107 70.1886C107.014 69.0629 106.557 68.0244 105.779 67.1947C105.72 67.1312 105.658 67.0692 105.595 67.0082C104.792 66.2343 104.336 65.2633 104.336 64.2521V64.196C104.336 63.8086 104.107 63.4646 103.752 63.2491C103.647 63.1854 103.569 63.0983 103.531 63H101.886H100.125H98.4691C98.4305 63.0983 98.3533 63.1854 98.2483 63.2491C97.8933 63.4646 97.6636 63.8086 97.6636 64.196V64.2521C97.6636 65.2633 97.2077 66.2343 96.4049 67.0082C96.3419 67.0692 96.2803 67.1312 96.2211 67.1947C95.4427 68.0244 94.9857 69.0629 95.0003 70.1886C95.0351 72.8621 97.7019 75 101 75Z" fill="#EFC518"/>
</g>
<path d="M172 34V75" stroke="white" stroke-width="2"/>
<path d="M201 1H1V16H201V1Z" stroke="white" stroke-width="2"/>
<path d="M35 16H26V34H35V16Z" stroke="white" stroke-width="2"/>
<path d="M176 16H167V34H176V16Z" stroke="white" stroke-width="2"/>
<path d="M105 16H96V34H105V16Z" stroke="white" stroke-width="2"/>
<path d="M101 34V55" stroke="white" stroke-width="2"/>
<path d="M31 34V74" stroke="white" stroke-width="2"/>
<g filter="url(#filter1_d)">
<path d="M172 95C175.298 95 177.965 92.8621 178 90.1886C178.014 89.0629 177.557 88.0244 176.779 87.1947C176.72 87.1312 176.658 87.0692 176.595 87.0082C175.792 86.2343 175.336 85.2633 175.336 84.2521V84.196C175.336 83.8086 175.107 83.4646 174.752 83.2491C174.647 83.1854 174.569 83.0983 174.531 83H172.886H171.125H169.469C169.431 83.0983 169.353 83.1854 169.248 83.2491C168.893 83.4646 168.664 83.8086 168.664 84.196V84.2521C168.664 85.2633 168.208 86.2343 167.405 87.0082C167.342 87.0692 167.28 87.1312 167.221 87.1947C166.443 88.0244 165.986 89.0629 166 90.1886C166.035 92.8621 168.702 95 172 95Z" fill="#EFC518"/>
</g>
<g filter="url(#filter2_d)">
<path d="M31 94C34.2981 94 36.9649 91.8621 36.9997 89.1886C37.0143 88.0629 36.5573 87.0244 35.7789 86.1947C35.7197 86.1312 35.6581 86.0692 35.5951 86.0082C34.7923 85.2343 34.3364 84.2633 34.3364 83.2521V83.196C34.3364 82.8086 34.1067 82.4646 33.7517 82.2491C33.6467 82.1854 33.5695 82.0983 33.5309 82H31.8857H30.1251H28.4691C28.4305 82.0983 28.3533 82.1854 28.2483 82.2491C27.8933 82.4646 27.6636 82.8086 27.6636 83.196V83.2521C27.6636 84.2633 27.2077 85.2343 26.4049 86.0082C26.3419 86.0692 26.2803 86.1312 26.2211 86.1947C25.4427 87.0244 24.9857 88.0629 25.0003 89.1886C25.0351 91.8621 27.7019 94 31 94Z" fill="#EFC518"/>
</g>
<path d="M167.144 89C167.222 89 167.285 89.0748 167.288 89.1691C167.314 90.0896 167.549 90.9674 167.975 91.7268C168.019 91.8047 168.004 91.9106 167.941 91.9662C167.875 92.0246 167.783 92.0054 167.737 91.9236C167.281 91.1092 167.028 90.1679 167 89.1807C166.997 89.0819 167.063 89 167.144 89Z" fill="white"/>
<path d="M172 93.8324C172 93.7423 172.071 93.6691 172.162 93.6644C174.611 93.5373 176.573 91.5801 176.658 89.1625C176.661 89.0719 176.736 89 176.829 89C176.925 89 177.003 89.0788 177 89.1738C176.91 91.7656 174.805 93.864 172.18 93.9997C172.082 94.0055 172 93.9283 172 93.8324Z" fill="white"/>
<path d="M182 75H161V105H182V75Z" stroke="white" stroke-width="2"/>
<path d="M172 78V83" stroke="white" stroke-width="2"/>
<path d="M161 78H182" stroke="white" stroke-width="2"/>
<path d="M96.1443 69C96.222 69 96.2854 69.0748 96.288 69.1691C96.3138 70.0896 96.5495 70.9674 96.9749 71.7268C97.0186 71.8047 97.0038 71.9106 96.9412 71.9662C96.8754 72.0246 96.7826 72.0054 96.7368 71.9236C96.2805 71.1092 96.0276 70.1679 96.0001 69.1807C95.9973 69.0819 96.0629 69 96.1443 69Z" fill="white"/>
<g filter="url(#filter3_d)">
<path d="M101 73.8324C101 73.7423 101.071 73.6691 101.162 73.6644C103.611 73.5373 105.573 71.5801 105.658 69.1625C105.661 69.0719 105.736 69 105.829 69C105.925 69 106.003 69.0788 106 69.1738C105.91 71.7656 103.805 73.864 101.18 73.9997C101.082 74.0055 101 73.9283 101 73.8324Z" fill="white"/>
</g>
<path d="M111 55H90V85H111V55Z" stroke="white" stroke-width="2"/>
<path d="M101 58V63" stroke="white" stroke-width="2"/>
<path d="M90 58L111 58" stroke="white" stroke-width="2"/>
<path d="M26.1443 88C26.222 88 26.2854 88.0748 26.288 88.1691C26.3138 89.0896 26.5495 89.9674 26.9749 90.7268C27.0186 90.8047 27.0038 90.9106 26.9412 90.9662C26.8754 91.0246 26.7826 91.0054 26.7368 90.9236C26.2805 90.1092 26.0276 89.1679 26.0001 88.1807C25.9973 88.0819 26.0629 88 26.1443 88Z" fill="white"/>
<path d="M31 92.8324C31 92.7423 31.0713 92.6691 31.1622 92.6644C33.6106 92.5373 35.5735 90.5801 35.658 88.1625C35.6612 88.0719 35.7364 88 35.8287 88C35.9254 88 36.0033 88.0788 35.9999 88.1738C35.9095 90.7656 33.8047 92.864 31.1799 92.9997C31.0821 93.0055 31 92.9283 31 92.8324Z" fill="white"/>
<path d="M41 74H20V104H41V74Z" stroke="white" stroke-width="2"/>
<path d="M31 77V82" stroke="white" stroke-width="2"/>
<path d="M20 77H41" stroke="white" stroke-width="2"/>
<defs>
<filter id="filter0_d" x="94" y="63" width="14" height="19" filterUnits="userSpaceOnUse" color-interpolation-filters="sRGB">
<feFlood flood-opacity="0" result="BackgroundImageFix"/>
<feColorMatrix in="SourceAlpha" type="matrix" values="0 0 0 0 0 0 0 0 0 0 0 0 0 0 0 0 0 0 127 0"/>
<feOffset dy="6"/>
<feGaussianBlur stdDeviation="0.5"/>
<feColorMatrix type="matrix" values="0 0 0 0 0.937255 0 0 0 0 0.772549 0 0 0 0 0.0941176 0 0 0 0.4 0"/>
<feBlend mode="normal" in2="BackgroundImageFix" result="effect1_dropShadow"/>
<feBlend mode="normal" in="SourceGraphic" in2="effect1_dropShadow" result="shape"/>
</filter>
<filter id="filter1_d" x="165" y="83" width="14" height="19" filterUnits="userSpaceOnUse" color-interpolation-filters="sRGB">
<feFlood flood-opacity="0" result="BackgroundImageFix"/>
<feColorMatrix in="SourceAlpha" type="matrix" values="0 0 0 0 0 0 0 0 0 0 0 0 0 0 0 0 0 0 127 0"/>
<feOffset dy="6"/>
<feGaussianBlur stdDeviation="0.5"/>
<feColorMatrix type="matrix" values="0 0 0 0 0.937255 0 0 0 0 0.772549 0 0 0 0 0.0941176 0 0 0 0.4 0"/>
<feBlend mode="normal" in2="BackgroundImageFix" result="effect1_dropShadow"/>
<feBlend mode="normal" in="SourceGraphic" in2="effect1_dropShadow" result="shape"/>
</filter>
<filter id="filter2_d" x="24" y="82" width="14" height="19" filterUnits="userSpaceOnUse" color-interpolation-filters="sRGB">
<feFlood flood-opacity="0" result="BackgroundImageFix"/>
<feColorMatrix in="SourceAlpha" type="matrix" values="0 0 0 0 0 0 0 0 0 0 0 0 0 0 0 0 0 0 127 0"/>
<feOffset dy="6"/>
<feGaussianBlur stdDeviation="0.5"/>
<feColorMatrix type="matrix" values="0 0 0 0 0.937255 0 0 0 0 0.772549 0 0 0 0 0.0941176 0 0 0 0.4 0"/>
<feBlend mode="normal" in2="BackgroundImageFix" result="effect1_dropShadow"/>
<feBlend mode="normal" in="SourceGraphic" in2="effect1_dropShadow" result="shape"/>
</filter>
<filter id="filter3_d" x="97" y="69" width="13" height="13" filterUnits="userSpaceOnUse" color-interpolation-filters="sRGB">
<feFlood flood-opacity="0" result="BackgroundImageFix"/>
<feColorMatrix in="SourceAlpha" type="matrix" values="0 0 0 0 0 0 0 0 0 0 0 0 0 0 0 0 0 0 127 0"/>
<feOffset dy="4"/>
<feGaussianBlur stdDeviation="2"/>
<feColorMatrix type="matrix" values="0 0 0 0 0 0 0 0 0 0 0 0 0 0 0 0 0 0 0.25 0"/>
<feBlend mode="normal" in2="BackgroundImageFix" result="effect1_dropShadow"/>
<feBlend mode="normal" in="SourceGraphic" in2="effect1_dropShadow" result="shape"/>
</filter>
</defs>
</svg>
