<svg width="200" height="110" viewBox="0 0 200 110" fill="none" xmlns="http://www.w3.org/2000/svg">
<rect x="150.6" y="18.6" width="8.8" height="18.8" stroke="white" stroke-width="1.2"/>
<line x1="155.6" y1="38" x2="155.6" y2="79" stroke="white" stroke-width="1.2"/>
<path d="M155.5 103.226C159.073 103.226 161.962 101.048 162 98.324C162.015 97.1771 161.52 96.119 160.677 95.2737C160.613 95.209 160.546 95.1458 160.478 95.0837C159.608 94.2952 159.114 93.3059 159.114 92.2757L159.114 92.2185C159.114 91.8238 158.866 91.4734 158.481 91.2538C158.367 91.1889 158.284 91.1002 158.242 91L156.459 91L154.552 91L152.758 91C152.716 91.1002 152.633 91.1889 152.519 91.2538C152.134 91.4734 151.886 91.8238 151.886 92.2185L151.886 92.2757C151.886 93.3059 151.392 94.2952 150.522 95.0837C150.454 95.1458 150.387 95.209 150.323 95.2737C149.48 96.119 148.985 97.1771 149 98.324C149.038 101.048 151.927 103.226 155.5 103.226Z" fill="white"/>
<path d="M157.158 84.6362C157.158 84.6383 157.159 84.6404 157.159 84.6424C157.159 84.6404 157.158 84.6383 157.158 84.6362Z" fill="black"/>
<path d="M159.539 90.8962C159.54 90.8983 159.54 90.9004 159.541 90.9024C159.54 90.9004 159.54 90.8983 159.539 90.8962Z" fill="black"/>
<path d="M150.078 97.8357C150.18 97.8357 150.263 97.8972 150.266 97.9747C150.3 98.7313 150.608 99.4528 151.165 100.077C151.222 100.141 151.203 100.228 151.121 100.274L151.121 100.274C151.035 100.322 150.914 100.306 150.854 100.239C150.256 99.5693 149.925 98.7956 149.889 97.9842C149.886 97.903 149.972 97.8357 150.078 97.8357Z" fill="white"/>
<path d="M155 102.131C155 102.054 155.079 101.991 155.179 101.987C157.877 101.879 160.04 100.206 160.133 98.1389C160.137 98.0615 160.22 98 160.321 98L160.321 98C160.428 98 160.514 98.0674 160.51 98.1486C160.41 100.364 158.091 102.158 155.198 102.274C155.091 102.279 155 102.213 155 102.131Z" fill="white"/>
<rect x="143.6" y="79.6" width="22.8" height="29.8" stroke="white" stroke-width="1.2"/>
<path d="M156 86V91" stroke="white" stroke-width="1.2"/>
<path d="M144 86H166" stroke="white" stroke-width="1.2"/>
<path d="M101.5 82.226C105.073 82.226 107.962 80.0478 108 77.324C108.015 76.1771 107.52 75.119 106.677 74.2737C106.613 74.209 106.546 74.1458 106.478 74.0837C105.608 73.2952 105.114 72.3059 105.114 71.2757L105.114 71.2185C105.114 70.8238 104.866 70.4734 104.481 70.2538C104.367 70.1889 104.284 70.1002 104.242 70L102.459 70L100.552 70L98.7582 70C98.7164 70.1002 98.6327 70.1889 98.519 70.2538C98.1344 70.4734 97.8856 70.8238 97.8856 71.2185L97.8856 71.2757C97.8856 72.3059 97.3917 73.2952 96.522 74.0837C96.4537 74.1458 96.387 74.209 96.3229 74.2737C95.4796 75.119 94.9845 76.1771 95.0004 77.324C95.0381 80.0478 97.9271 82.226 101.5 82.226Z" fill="white"/>
<path d="M38.5 101.226C42.0729 101.226 44.9619 99.0478 44.9996 96.324C45.0155 95.1771 44.5204 94.119 43.6771 93.2737C43.613 93.209 43.5463 93.1458 43.478 93.0837C42.6083 92.2952 42.1144 91.3059 42.1144 90.2757L42.1144 90.2185C42.1144 89.8238 41.8656 89.4734 41.481 89.2538C41.3673 89.1889 41.2836 89.1002 41.2418 89L39.4595 89L37.5522 89L35.7582 89C35.7164 89.1002 35.6327 89.1889 35.519 89.2538C35.1344 89.4734 34.8856 89.8238 34.8856 90.2185L34.8856 90.2757C34.8856 91.3059 34.3917 92.2952 33.522 93.0837C33.4537 93.1458 33.387 93.209 33.3229 93.2737C32.4796 94.119 31.9845 95.1771 32.0004 96.324C32.0381 99.0478 34.9271 101.226 38.5 101.226Z" fill="white"/>
<path d="M103.158 63.6362C103.158 63.6383 103.159 63.6404 103.159 63.6424C103.159 63.6404 103.158 63.6383 103.158 63.6362Z" fill="black"/>
<path d="M40.158 82.6362C40.1585 82.6383 40.1589 82.6404 40.1594 82.6424C40.1589 82.6404 40.1585 82.6383 40.158 82.6362Z" fill="black"/>
<path d="M105.539 69.8962C105.54 69.8983 105.54 69.9004 105.541 69.9024C105.54 69.9004 105.54 69.8983 105.539 69.8962Z" fill="black"/>
<path d="M42.5392 88.8962C42.5398 88.8983 42.5404 88.9004 42.541 88.9024C42.5404 88.9004 42.5398 88.8983 42.5392 88.8962Z" fill="black"/>
<path d="M96.0782 76.8357C96.1798 76.8357 96.2628 76.8972 96.2662 76.9747C96.2999 77.7313 96.6084 78.4528 97.1652 79.0769C97.2224 79.141 97.203 79.228 97.121 79.2737L97.121 79.2737C97.0349 79.3217 96.9135 79.3059 96.8536 79.2387C96.2564 78.5693 95.9254 77.7956 95.8894 76.9842C95.8858 76.903 95.9716 76.8357 96.0782 76.8357Z" fill="white"/>
<path d="M33.0782 95.8357C33.1798 95.8357 33.2628 95.8972 33.2662 95.9747C33.2999 96.7313 33.6084 97.4528 34.1652 98.0769C34.2224 98.141 34.203 98.228 34.121 98.2737L34.121 98.2737C34.0349 98.3217 33.9135 98.3059 33.8536 98.2387C33.2564 97.5693 32.9254 96.7956 32.8894 95.9842C32.8858 95.903 32.9716 95.8357 33.0782 95.8357Z" fill="white"/>
<path d="M101 81.1306C101 81.0542 101.079 80.9914 101.179 80.9874C103.877 80.8787 106.04 79.2056 106.133 77.1389C106.137 77.0615 106.22 77 106.321 77L106.321 77C106.428 77 106.514 77.0674 106.51 77.1486C106.41 79.3642 104.091 81.1581 101.198 81.2744C101.091 81.2787 101 81.2129 101 81.1306Z" fill="white"/>
<path d="M38.0001 100.131C38.0001 100.054 38.0787 99.9914 38.1788 99.9874C40.877 99.8787 43.0402 98.2056 43.1333 96.1389C43.1368 96.0615 43.2197 96 43.3214 96L43.3214 96C43.428 96 43.5138 96.0674 43.5101 96.1486C43.4105 98.3642 41.091 100.158 38.1983 100.274C38.0906 100.279 38.0001 100.213 38.0001 100.131Z" fill="white"/>
<rect x="0.75" y="0.75" width="198.5" height="17.5" stroke="white" stroke-width="1.5"/>
<rect x="96.6" y="18.6" width="8.8" height="18.8" stroke="white" stroke-width="1.2"/>
<rect x="33.6" y="18.6" width="8.8" height="18.8" stroke="white" stroke-width="1.2"/>
<line x1="101.5" y1="38" x2="101.5" y2="59" stroke="white"/>
<line x1="38.6" y1="38" x2="38.6" y2="78" stroke="white" stroke-width="1.2"/>
<rect x="89.6" y="58.6" width="22.8" height="29.8" stroke="white" stroke-width="1.2"/>
<rect x="26.6" y="77.6" width="22.8" height="29.8" stroke="white" stroke-width="1.2"/>
<path d="M102 65V70" stroke="white" stroke-width="1.2"/>
<path d="M39 84V89" stroke="white" stroke-width="1.2"/>
<path d="M90 65H112" stroke="white" stroke-width="1.2"/>
<path d="M27 84H49" stroke="white" stroke-width="1.2"/>
</svg>
