<svg width="42" height="39" viewBox="0 0 42 39" fill="none" xmlns="http://www.w3.org/2000/svg">
<rect x="15.5" y="0.5" width="10" height="6" fill="#565555" stroke="#C4C4C4"/>
<path d="M41.5 14.3256C41.5 14.3736 41.5 14.4163 41.4998 14.4546C41.3867 14.4266 41.2349 14.3849 41.0267 14.3269L41.024 14.3262C40.654 14.2231 40.1543 14.0839 39.489 13.9282C36.8175 13.3028 31.5277 12.4224 21 12.4224C10.4723 12.4224 5.18254 13.3028 2.51104 13.9282C1.84572 14.0839 1.34598 14.2231 0.975996 14.3262L0.973262 14.3269C0.765144 14.3849 0.613299 14.4266 0.50023 14.4546C0.500023 14.4163 0.5 14.3736 0.5 14.3256C0.5 11.6743 2.6659 8.72442 6.41399 6.40347C10.1321 4.10111 15.2903 2.5 21 2.5C26.7097 2.5 31.8679 4.10111 35.586 6.40347C39.3341 8.72442 41.5 11.6743 41.5 14.3256ZM41.7444 14.4999C41.7446 14.5 41.7435 14.5001 41.7408 14.5C41.7429 14.4999 41.7441 14.4999 41.7444 14.4999ZM0.255599 14.5C0.255645 14.4999 0.25691 14.4999 0.25926 14.5C0.25673 14.5001 0.255554 14.5 0.255599 14.5Z" fill="#565555" stroke="#C4C4C4"/>
<path d="M23.8628 14.0026C23.8558 13.9805 23.8496 13.9581 23.8442 13.9355C23.8433 13.9321 23.8427 13.9286 23.8419 13.9252C23.8378 13.907 23.8342 13.8888 23.8311 13.8703C23.83 13.8641 23.8291 13.8578 23.8282 13.8515C23.8258 13.8351 23.8238 13.8186 23.8223 13.8019C23.8217 13.7956 23.821 13.7893 23.8205 13.7829C23.8189 13.7606 23.8179 13.7381 23.8179 13.7154L23.8179 11.8654C23.8179 11.4259 23.6007 11.0366 23.2676 10.7996C23.1364 10.706 23.0545 10.5587 23.0545 10.3979L23.0545 6.7233C23.0545 6.3238 22.7298 6 22.3295 6L19.7502 6L17.1708 6C16.7705 6 16.4459 6.3238 16.4459 6.7233L16.4459 10.3979C16.4459 10.5587 16.3639 10.706 16.2327 10.7996C15.8996 11.0366 15.6824 11.4259 15.6824 11.8654L15.6824 13.7154C15.6824 13.7381 15.6814 13.7606 15.6798 13.7829C15.6793 13.7893 15.6786 13.7956 15.678 13.8019C15.6765 13.8186 15.6746 13.8351 15.6721 13.8515C15.6712 13.8578 15.6703 13.8641 15.6693 13.8703C15.6662 13.8888 15.6625 13.9071 15.6584 13.9253C15.6576 13.9287 15.657 13.9321 15.6562 13.9354C15.6507 13.9581 15.6446 13.9805 15.6375 14.0026L23.8628 14.0026Z" fill="#565555"/>
<path d="M15.678 13.8016C15.6786 13.7953 15.6792 13.789 15.6797 13.7827C15.6792 13.789 15.6785 13.7953 15.678 13.8016Z" fill="black"/>
<path d="M23.8205 13.7827C23.821 13.789 23.8217 13.7953 23.8223 13.8016C23.8217 13.7953 23.821 13.789 23.8205 13.7827Z" fill="black"/>
<path d="M23.8279 13.8513C23.8288 13.8576 23.8298 13.8639 23.8308 13.8701C23.8298 13.8639 23.8288 13.8576 23.8279 13.8513Z" fill="black"/>
<path d="M15.656 13.9351C15.6568 13.9318 15.6574 13.9284 15.6582 13.925C15.6575 13.9284 15.6568 13.9318 15.656 13.9351Z" fill="black"/>
<path d="M15.6693 13.8701C15.6703 13.8638 15.6712 13.8576 15.6721 13.8513C15.6713 13.8576 15.6703 13.8638 15.6693 13.8701Z" fill="black"/>
<path d="M27.117 22.6928L27.118 22.6941C28.318 24.268 29.022 26.2371 28.9995 28.373L27.117 22.6928ZM27.117 22.6928C27.0271 22.574 26.9325 22.4566 26.8344 22.3399C25.4575 20.7063 24.6716 18.6515 24.6716 16.5064L24.6716 16.3941C24.6716 15.7839 24.3783 15.242 23.9222 14.9012L23.9222 14.9012M27.117 22.6928L23.9222 14.9012M23.9222 14.9012C23.7748 14.791 23.6486 14.6559 23.5502 14.5024M23.9222 14.9012L23.5502 14.5024M12.382 22.6941L12.3829 22.6929C12.473 22.574 12.5675 22.4567 12.6655 22.34C14.0425 20.7064 14.8284 18.6516 14.8284 16.5064L14.8284 16.3941C14.8284 15.7839 15.1217 15.242 15.5778 14.9012L12.382 22.6941ZM12.382 22.6941C11.182 24.268 10.478 26.2371 10.5005 28.373C10.5542 33.444 14.6635 37.5001 19.75 37.5001C24.8366 37.5001 28.9458 33.444 28.9995 28.373L12.382 22.6941ZM23.5502 14.5024L21.1892 14.5024L18.3283 14.5024L15.9498 14.5024C15.8514 14.6559 15.7252 14.791 15.5778 14.9012L23.5502 14.5024Z" stroke="#E2C675"/>
<path d="M23.8418 13.925C23.8425 13.9285 23.8432 13.9319 23.844 13.9353C23.8432 13.9319 23.8425 13.9285 23.8418 13.925Z" fill="black"/>
<path d="M19.75 30.5177C19.2775 30.5471 18.7706 30.4311 18.4207 30.3316C18.1709 30.2606 17.9081 30.25 17.6534 30.3011L16.1244 30.6077C15.9521 30.6423 15.8071 30.4775 15.8643 30.3117C16.4055 28.7431 18.4575 22.7497 18.4222 22.1501L19.3044 22.1501C19.3044 22.1501 19.478 22.3611 19.75 22.4492" stroke="#E2C675" stroke-width="0.533333" stroke-miterlimit="10"/>
<path d="M19.7501 30.5177C20.2226 30.5471 20.7295 30.4311 21.0793 30.3316C21.3292 30.2606 21.5919 30.25 21.8466 30.3011L23.3756 30.6077C23.548 30.6423 23.693 30.4775 23.6358 30.3117C23.0945 28.7431 21.0425 22.7497 21.0779 22.1501L20.1957 22.1501C20.1957 22.1501 20.0221 22.3611 19.7501 22.4492" stroke="#E2C675" stroke-width="0.533333" stroke-miterlimit="10"/>
<path d="M21.0777 22.1502C22.3506 21.1956 21.1891 19.9566 21.1891 19.9566L21.1891 15.0024" stroke="#E2C675" stroke-width="0.533333" stroke-miterlimit="10"/>
<path d="M18.4397 22.1502C17.1668 21.1956 18.3283 19.9566 18.3283 19.9566L18.3283 15.0024" stroke="#E2C675" stroke-width="0.533333" stroke-miterlimit="10"/>
<path d="M20.3369 22.1501L20.3369 24.0526C20.3369 24.0526 20.7511 24.4972 20.3701 24.8707" stroke="#E2C675" stroke-width="0.533333" stroke-miterlimit="10"/>
<path d="M19.1455 24.8673C18.7696 24.4949 19.1821 24.0526 19.1821 24.0526L19.1821 22.1501" stroke="#E2C675" stroke-width="0.533333" stroke-miterlimit="10"/>
<path d="M18.9777 24.9571C18.9777 24.8774 19.3235 24.8127 19.7501 24.8127C20.1767 24.8127 20.5225 24.8774 20.5225 24.9571C20.5225 25.0368 20.1767 25.1015 19.7501 25.1015C19.3235 25.1015 18.9777 25.0368 18.9777 24.9571Z" stroke="#E2C675" stroke-width="0.533333" stroke-miterlimit="10"/>
</svg>
