<svg width="42" height="39" viewBox="0 0 42 39" fill="none" xmlns="http://www.w3.org/2000/svg">
<rect x="15.5" y="0.5" width="10" height="6" fill="#565555" stroke="#C4C4C4"/>
<path d="M41.5001 14.3256C41.5001 14.3736 41.5001 14.4163 41.4999 14.4546C41.3868 14.4266 41.235 14.3849 41.0268 14.3269L41.0241 14.3261C40.6541 14.2231 40.1544 14.0839 39.4891 13.9282C36.8176 13.3028 31.5278 12.4224 21.0001 12.4224C10.4724 12.4224 5.18263 13.3028 2.51113 13.9282C1.84581 14.0839 1.34608 14.2231 0.976089 14.3262L0.973356 14.3269C0.765238 14.3849 0.613393 14.4266 0.500324 14.4546C0.500117 14.4163 0.500094 14.3736 0.500094 14.3256C0.500094 11.6743 2.666 8.72442 6.41409 6.40347C10.1322 4.10111 15.2904 2.5 21.0001 2.5C26.7098 2.5 31.868 4.10111 35.5861 6.40347C39.3342 8.72442 41.5001 11.6743 41.5001 14.3256ZM41.7445 14.5C41.7445 14.5 41.7433 14.5001 41.7409 14.5C41.7433 14.4999 41.7445 14.4999 41.7445 14.5ZM0.255693 14.5C0.255738 14.4999 0.257004 14.4999 0.259355 14.5C0.256824 14.5001 0.255649 14.5 0.255693 14.5Z" fill="#565555" stroke="#C4C4C4"/>
<path d="M24.8628 14.0026C24.8558 13.9805 24.8496 13.9581 24.8442 13.9355C24.8433 13.9321 24.8427 13.9286 24.8419 13.9252C24.8378 13.907 24.8342 13.8888 24.8311 13.8703C24.83 13.8641 24.8291 13.8578 24.8282 13.8515C24.8258 13.8351 24.8238 13.8186 24.8223 13.8019C24.8217 13.7956 24.821 13.7893 24.8205 13.7829C24.8189 13.7606 24.8179 13.7381 24.8179 13.7154L24.8179 11.8654C24.8179 11.4259 24.6007 11.0366 24.2676 10.7996C24.1364 10.706 24.0545 10.5587 24.0545 10.3979L24.0545 6.7233C24.0545 6.3238 23.7298 6 23.3295 6L20.7502 6L18.1708 6C17.7705 6 17.4459 6.3238 17.4459 6.7233L17.4459 10.3979C17.4459 10.5587 17.3639 10.706 17.2327 10.7996C16.8996 11.0366 16.6824 11.4259 16.6824 11.8654L16.6824 13.7154C16.6824 13.7381 16.6814 13.7606 16.6798 13.7829C16.6793 13.7893 16.6786 13.7956 16.678 13.8019C16.6765 13.8186 16.6746 13.8351 16.6721 13.8515C16.6712 13.8578 16.6703 13.8641 16.6693 13.8703C16.6662 13.8888 16.6625 13.9071 16.6584 13.9253C16.6576 13.9287 16.657 13.9321 16.6562 13.9354C16.6507 13.9581 16.6446 13.9805 16.6375 14.0026L24.8628 14.0026Z" fill="#565555"/>
<path d="M16.678 13.8016C16.6786 13.7953 16.6792 13.789 16.6797 13.7827C16.6792 13.789 16.6785 13.7953 16.678 13.8016Z" fill="black"/>
<path d="M24.8205 13.7827C24.821 13.789 24.8217 13.7953 24.8223 13.8016C24.8217 13.7953 24.821 13.789 24.8205 13.7827Z" fill="black"/>
<path d="M24.8279 13.8513C24.8288 13.8576 24.8298 13.8639 24.8308 13.8701C24.8298 13.8639 24.8288 13.8576 24.8279 13.8513Z" fill="black"/>
<path d="M16.656 13.9351C16.6568 13.9318 16.6574 13.9284 16.6582 13.925C16.6575 13.9284 16.6568 13.9318 16.656 13.9351Z" fill="black"/>
<path d="M16.6693 13.8701C16.6703 13.8638 16.6712 13.8576 16.6721 13.8513C16.6713 13.8576 16.6703 13.8638 16.6693 13.8701Z" fill="black"/>
<path d="M20.75 38.0001C26.1094 38.0001 30.4429 33.7246 30.4994 28.3783C30.5232 26.1271 29.7807 24.0503 28.5156 22.391C28.4195 22.264 28.3194 22.1399 28.217 22.018C26.9124 20.4705 26.1716 18.5285 26.1716 16.5064L26.1716 16.3941C26.1716 15.6194 25.7983 14.9317 25.2215 14.5007C25.051 14.3732 24.9254 14.1991 24.8626 14.0024L22.1892 14.0024L19.3283 14.0024L16.6374 14.0024C16.5746 14.1991 16.449 14.3732 16.2785 14.5007C15.7017 14.9317 15.3284 15.6194 15.3284 16.3941L15.3284 16.5064C15.3284 18.5285 14.5876 20.4705 13.283 22.018C13.1806 22.1399 13.0805 22.264 12.9844 22.391C11.7193 24.0503 10.9768 26.1271 11.0006 28.3783C11.0571 33.7246 15.3906 38.0001 20.75 38.0001Z" fill="#F9A01B"/>
<path d="M24.8418 13.925C24.8425 13.9285 24.8432 13.9319 24.844 13.9353C24.8432 13.9319 24.8425 13.9285 24.8418 13.925Z" fill="black"/>
<path d="M12.6164 28.3528C12.7689 28.3528 12.8933 28.4735 12.8985 28.6255C12.949 30.1106 13.4118 31.5268 14.247 32.752C14.3327 32.8777 14.3037 33.0484 14.1806 33.1382L14.1806 33.1382C14.0516 33.2324 13.8694 33.2014 13.7795 33.0696C12.8837 31.7556 12.3873 30.2369 12.3333 28.6444C12.3279 28.485 12.4565 28.3528 12.6164 28.3528Z" fill="white"/>
<path d="M20.9015 36.4605C20.9015 36.3105 21.0194 36.1872 21.1695 36.1793C25.2168 35.966 28.4616 32.682 28.6014 28.6255C28.6066 28.4735 28.731 28.3528 28.8834 28.3528L28.8835 28.3528C29.0433 28.3528 29.172 28.485 29.1666 28.6444C29.0171 32.9933 25.5379 36.5144 21.1988 36.7427C21.0372 36.7512 20.9015 36.622 20.9015 36.4605Z" fill="white"/>
</svg>
