<svg width="200" height="200" viewBox="0 0 200 200" fill="none" xmlns="http://www.w3.org/2000/svg">
<path d="M193.444 75.0678L179.13 62.2V36.7012C179.13 28.0847 171.328 21.0745 161.738 21.0745H133.391L111.228 1.14934C110.413 0.416842 109.308 0.004688 108.155 0.00429734L91.9576 0C91.9572 0 91.9568 0 91.9563 0C90.8037 0 89.6981 0.411372 88.8829 1.14348L66.6873 21.0749H38.2604C28.6708 21.0749 20.8691 28.085 20.8691 36.7016V62.2411L6.5639 75.0651C2.3313 78.8663 0 83.9211 0 89.2987V179.877C0 185.297 2.40173 190.22 6.2939 193.842C6.37781 193.932 6.4652 194.021 6.55955 194.106C6.65346 194.19 6.75172 194.268 6.85172 194.343C10.8826 197.841 16.3621 200 22.3956 200H80.4346C82.8359 200 84.7824 198.251 84.7824 196.093C84.7824 193.936 82.8359 192.187 80.4346 192.187H22.3952C20.2008 192.187 18.1274 191.718 16.2865 190.89L67.5338 144.843L84.2181 159.825C88.4476 163.624 94.0694 165.715 100.049 165.715H100.056C106.038 165.714 111.661 163.619 115.89 159.817L132.505 144.878L183.712 190.89C181.872 191.718 179.798 192.187 177.604 192.187H119.565C117.164 192.187 115.217 193.936 115.217 196.093C115.217 198.251 117.164 200 119.565 200H177.604C183.637 200 189.117 197.842 193.147 194.344C193.248 194.269 193.347 194.19 193.44 194.106C193.535 194.021 193.622 193.932 193.707 193.842C197.598 190.22 200 185.297 200 179.877V89.2928C200 83.9203 197.672 78.8686 193.444 75.0678V75.0678ZM179.13 73.252L187.294 80.5911C188.048 81.2689 188.7 82.0135 189.25 82.8073L179.13 91.906V73.252ZM93.7559 7.81373L106.351 7.81764L121.096 21.0749H78.9881L93.7559 7.81373ZM12.7082 80.5942L20.8695 73.2778V91.8931L10.7526 82.8085C11.3026 82.0151 11.9548 81.2708 12.7082 80.5942ZM10.1378 185.366C9.21694 183.712 8.69563 181.849 8.69563 179.877V92.0071L61.3833 139.32L10.1378 185.366ZM109.74 154.294C107.153 156.62 103.713 157.901 100.054 157.902C100.052 157.902 100.051 157.902 100.05 157.902C96.392 157.902 92.9528 156.622 90.3655 154.299L29.5652 99.7013V36.7012C29.5652 32.3929 33.466 28.8879 38.2608 28.8879H161.739C166.534 28.8879 170.434 32.3929 170.434 36.7012V63.3189C170.393 63.6295 170.393 63.9428 170.434 64.2534V99.7236L109.74 154.294ZM191.304 179.877C191.304 181.849 190.783 183.712 189.862 185.366L138.652 139.352L191.304 92.0138V179.877Z" fill="white"/>
<path d="M99.9999 192.186C98.8564 192.186 97.7347 192.604 96.926 193.33C96.1173 194.057 95.6521 195.065 95.6521 196.092C95.6521 197.12 96.1173 198.128 96.926 198.854C97.7347 199.585 98.8564 199.999 99.9999 199.999C101.143 199.999 102.265 199.585 103.074 198.854C103.883 198.128 104.348 197.12 104.348 196.092C104.348 195.065 103.883 194.057 103.074 193.33C102.265 192.604 101.143 192.186 99.9999 192.186Z" fill="white"/>
<path d="M99.9998 45.2715C77.3642 45.2715 58.949 61.8178 58.949 82.1567C58.949 102.774 77.6163 119.547 100.561 119.547H126.987C129.388 119.547 131.335 117.798 131.335 115.64C131.335 113.483 129.388 111.734 126.987 111.734H100.561C82.4111 111.734 67.6446 98.4655 67.6446 82.1567C67.6446 66.1265 82.1589 53.0848 99.9998 53.0848C117.841 53.0848 132.355 66.1265 132.355 82.1567V90.1626C132.355 93.2395 129.569 95.7425 126.144 95.7425C122.72 95.7425 119.934 93.2395 119.934 90.1626V81.1199C119.934 70.4238 110.25 61.7221 98.3458 61.7221C85.8285 61.7221 75.6455 70.8723 75.6455 82.1196C75.6455 93.3665 85.8289 102.517 98.3458 102.517H105.262C107.664 102.517 109.61 100.767 109.61 98.61C109.61 96.4528 107.664 94.7033 105.262 94.7033H98.3458C90.6237 94.7033 84.3411 89.0582 84.3411 82.1192C84.3411 75.1806 90.6237 69.5354 98.3458 69.5354C105.455 69.5354 111.238 74.7325 111.238 81.1199V90.1626C111.238 97.5478 117.925 103.556 126.144 103.556C134.364 103.556 141.051 97.5478 141.051 90.1626V82.1567C141.05 61.8178 122.635 45.2715 99.9998 45.2715V45.2715Z" fill="white"/>
</svg>
