<svg width="100%" height="100%" viewBox="0 0 43 46" fill="none" xmlns="http://www.w3.org/2000/svg">
<path d="M38.5418 10.3333C42.4569 6.375 40.5116 2 33.7806 2C27.0497 2 16.5458 2 11.3706 2C6.19536 2 2 6.47715 2 12C2 17.5228 6.19536 22 11.3706 22C16.5458 22 20.7412 17.5228 20.7412 12C20.7412 11.5383 20.6831 8.2 18.1792 6.4" stroke="white" stroke-width="3"/>
<path d="M32.3314 11.5385C41.8854 11.1385 40.9459 22 35.563 22C30.1801 22 32.8549 22 27.0546 22C27.0546 15.6 27.0546 12.4 27.0546 6" stroke="#23CBA7" stroke-width="3"/>
<path d="M6.82715 29.9458C6.82715 30.5757 6.71582 31.1279 6.49316 31.6025C6.27051 32.0771 5.95117 32.4434 5.53516 32.7012C5.12207 32.959 4.64746 33.0879 4.11133 33.0879C3.58105 33.0879 3.10791 32.9604 2.69189 32.7056C2.27588 32.4507 1.95361 32.0874 1.7251 31.6157C1.49658 31.1411 1.38086 30.5962 1.37793 29.981V29.6646C1.37793 29.0347 1.49072 28.481 1.71631 28.0034C1.94482 27.5229 2.26562 27.1553 2.67871 26.9004C3.09473 26.6426 3.56934 26.5137 4.10254 26.5137C4.63574 26.5137 5.10889 26.6426 5.52197 26.9004C5.93799 27.1553 6.25879 27.5229 6.48438 28.0034C6.71289 28.481 6.82715 29.0332 6.82715 29.6602V29.9458ZM5.49121 29.6558C5.49121 28.9849 5.37109 28.4751 5.13086 28.1265C4.89062 27.7778 4.54785 27.6035 4.10254 27.6035C3.66016 27.6035 3.31885 27.7764 3.07861 28.1221C2.83838 28.4648 2.7168 28.9688 2.71387 29.6338V29.9458C2.71387 30.5991 2.83398 31.106 3.07422 31.4663C3.31445 31.8267 3.66016 32.0068 4.11133 32.0068C4.55371 32.0068 4.89355 31.834 5.13086 31.4883C5.36816 31.1396 5.48828 30.6328 5.49121 29.9678V29.6558ZM9.10352 31.9409H11.9028V33H7.78516V26.6016H9.10352V31.9409ZM16.3633 31.6816H14.0518L13.6123 33H12.2104L14.5923 26.6016H15.814L18.209 33H16.8071L16.3633 31.6816ZM14.4077 30.6138H16.0073L15.2031 28.2188L14.4077 30.6138ZM23.6143 31.1543L24.4756 26.6016H25.7896L24.3701 33H23.043L22.0015 28.7197L20.96 33H19.6328L18.2134 26.6016H19.5273L20.3931 31.1455L21.4478 26.6016H22.564L23.6143 31.1543ZM29.9248 31.6816H27.6133L27.1738 33H25.772L28.1538 26.6016H29.3755L31.7705 33H30.3687L29.9248 31.6816ZM27.9692 30.6138H29.5688L28.7646 28.2188L27.9692 30.6138ZM33.6865 31.9409H36.4858V33H32.3682V26.6016H33.6865V31.9409ZM41.0957 30.2271H38.5645V31.9409H41.5352V33H37.2461V26.6016H41.5264V27.6694H38.5645V29.1943H41.0957V30.2271Z" fill="#23CBA7"/>
<path d="M1.70098 44V37.1039H4.0644C4.84432 37.1039 5.43794 37.2602 5.84526 37.5728C6.25259 37.8854 6.45625 38.3511 6.45625 38.97C6.45625 39.2858 6.371 39.57 6.20049 39.8226C6.02998 40.0752 5.78053 40.2709 5.45215 40.4099C5.82474 40.5109 6.11208 40.7019 6.31416 40.983C6.5194 41.2608 6.62202 41.5955 6.62202 41.9871C6.62202 42.6344 6.41362 43.1317 5.99683 43.479C5.58319 43.8263 4.98957 44 4.21597 44H1.70098ZM2.89927 40.8882V43.0433H4.23018C4.60592 43.0433 4.89958 42.9501 5.11113 42.7638C5.32269 42.5775 5.42847 42.3186 5.42847 41.9871C5.42847 41.2703 5.06219 40.904 4.32964 40.8882H2.89927ZM2.89927 40.0073H4.07388C4.44647 40.0073 4.73696 39.9236 4.94536 39.7563C5.15692 39.5857 5.2627 39.3458 5.2627 39.0363C5.2627 38.6953 5.16481 38.449 4.96904 38.2975C4.77643 38.1459 4.47489 38.0701 4.0644 38.0701H2.89927V40.0073ZM11.6804 42.3944H9.00913L8.45024 44H7.20459L9.80957 37.1039H10.8847L13.4944 44H12.244L11.6804 42.3944ZM9.34541 41.4282H11.3441L10.3448 38.5674L9.34541 41.4282ZM17.885 42.2239C17.885 41.9208 17.7777 41.6871 17.5629 41.5229C17.3514 41.3587 16.9677 41.1929 16.412 41.0256C15.8563 40.8582 15.4142 40.6719 15.0858 40.4667C14.4575 40.072 14.1433 39.5573 14.1433 38.9227C14.1433 38.3669 14.3691 37.9091 14.8206 37.5491C15.2753 37.1892 15.8642 37.0092 16.5873 37.0092C17.0672 37.0092 17.4951 37.0976 17.8708 37.2744C18.2465 37.4512 18.5418 37.7038 18.7565 38.0322C18.9712 38.3575 19.0786 38.719 19.0786 39.1168H17.885C17.885 38.7569 17.7713 38.4759 17.544 38.2738C17.3198 38.0685 16.9977 37.9659 16.5778 37.9659C16.1862 37.9659 15.8815 38.0496 15.6637 38.2169C15.449 38.3843 15.3416 38.618 15.3416 38.9179C15.3416 39.1705 15.4584 39.3821 15.6921 39.5526C15.9257 39.7199 16.311 39.8841 16.8478 40.0452C17.3845 40.203 17.8155 40.3846 18.1408 40.5898C18.466 40.7919 18.7044 41.0256 18.856 41.2908C19.0075 41.5529 19.0833 41.8608 19.0833 42.2144C19.0833 42.7891 18.8623 43.2469 18.4202 43.5879C17.9813 43.9258 17.3845 44.0947 16.6299 44.0947C16.131 44.0947 15.6716 44.0032 15.2516 43.82C14.8348 43.6337 14.5096 43.378 14.2759 43.0527C14.0454 42.7275 13.9302 42.3486 13.9302 41.916H15.1285C15.1285 42.3076 15.2579 42.6107 15.5168 42.8254C15.7758 43.0401 16.1468 43.1475 16.6299 43.1475C17.0467 43.1475 17.3593 43.0638 17.5677 42.8964C17.7792 42.7259 17.885 42.5017 17.885 42.2239ZM25.61 44H24.4164V40.9356H21.3331V44H20.1348V37.1039H21.3331V39.9741H24.4164V37.1039H25.61V44ZM28.2955 44H27.1019V37.1039H28.2955V44ZM32.3024 41.3429H30.9667V44H29.7685V37.1039H32.1935C32.9892 37.1039 33.6033 37.2823 34.0359 37.6391C34.4685 37.9959 34.6848 38.5122 34.6848 39.1879C34.6848 39.6489 34.5727 40.0357 34.3485 40.3483C34.1275 40.6577 33.818 40.8961 33.4202 41.0635L34.9689 43.9384V44H33.6854L32.3024 41.3429ZM30.9667 40.3814H32.1982C32.6024 40.3814 32.9181 40.2804 33.1455 40.0783C33.3728 39.8731 33.4865 39.5936 33.4865 39.24C33.4865 38.8706 33.3807 38.5848 33.1691 38.3827C32.9607 38.1806 32.6481 38.0764 32.2313 38.0701H30.9667V40.3814ZM40.8657 37.1039V41.7124C40.8657 42.4449 40.6304 43.0259 40.16 43.4553C39.6926 43.8816 39.069 44.0947 38.2891 44.0947C37.4997 44.0947 36.8729 43.8847 36.4088 43.4648C35.9446 43.0417 35.7125 42.456 35.7125 41.7076V37.1039H36.9061V41.7171C36.9061 42.1781 37.0229 42.5302 37.2566 42.7733C37.4902 43.0164 37.8344 43.138 38.2891 43.138C39.2111 43.138 39.6721 42.6517 39.6721 41.6792V37.1039H40.8657Z" fill="white"/>
</svg>
