<svg width="100%" height="100%" viewBox="0 0 60 30" fill="none" xmlns="http://www.w3.org/2000/svg">
<path d="M14 0.750004L46 0.750001C53.2579 0.750001 59.25 7.09321 59.25 15C59.25 22.9068 53.2579 29.25 46 29.25L14 29.25C6.74211 29.25 0.749999 22.9068 0.749999 15C0.749998 7.09321 6.74211 0.750005 14 0.750004ZM3.25 15C3.25 21.2725 8.02389 26.4643 14 26.4643C19.9761 26.4643 24.75 21.2725 24.75 15C24.75 8.72751 19.9761 3.53572 14 3.53572C8.02389 3.53572 3.25 8.72751 3.25 15Z" fill="white" stroke="black" stroke-width="1.5"/>
<mask id="path-2-inside-1" fill="white">
<path d="M41 8L39.5 3L38 8H39.5H41Z"/>
</mask>
<path d="M41 8L39.5 3L38 8H39.5H41Z" fill="#F7A663"/>
<path d="M41 8V11H45.0321L43.8735 7.13796L41 8ZM39.5 3L42.3735 2.13796L39.5 -7.44031L36.6265 2.13796L39.5 3ZM38 8L35.1265 7.13796L33.9679 11H38V8ZM43.8735 7.13796L42.3735 2.13796L36.6265 3.86204L38.1265 8.86204L43.8735 7.13796ZM36.6265 2.13796L35.1265 7.13796L40.8735 8.86204L42.3735 3.86204L36.6265 2.13796ZM38 11H39.5V5H38V11ZM39.5 11H41V5H39.5V11Z" fill="#F7A663" mask="url(#path-2-inside-1)"/>
<mask id="path-4-inside-2" fill="white">
<path d="M35.9827 9.48961L37 8.97922L33 5L34.9655 10L35.9827 9.48961Z"/>
</mask>
<path d="M35.9827 9.48961L37 8.97922L33 5L34.9655 10L35.9827 9.48961Z" fill="#F7A663"/>
<path d="M35.9827 9.48961L34.6374 6.80819L34.6374 6.80819L35.9827 9.48961ZM37 8.97922L38.3454 11.6606L42.0704 9.79165L39.1158 6.85238L37 8.97922ZM33 5L35.1158 2.87316L30.208 6.09754L33 5ZM34.9655 10L32.1735 11.0975L33.3751 14.1544L36.3108 12.6814L34.9655 10ZM37.3281 12.171L38.3454 11.6606L35.6546 6.2978L34.6374 6.80819L37.3281 12.171ZM39.1158 6.85238L35.1158 2.87316L30.8842 7.12684L34.8842 11.1061L39.1158 6.85238ZM30.208 6.09754L32.1735 11.0975L37.7575 8.90246L35.792 3.90246L30.208 6.09754ZM36.3108 12.6814L37.3281 12.171L34.6374 6.80819L33.6201 7.31858L36.3108 12.6814Z" fill="#F7A663" mask="url(#path-4-inside-2)"/>
<mask id="path-6-inside-3" fill="white">
<path d="M33.4897 11.9828L34 10.9654L29 9L32.9792 13L33.4897 11.9828Z"/>
</mask>
<path d="M33.4897 11.9828L34 10.9654L29 9L32.9792 13L33.4897 11.9828Z" fill="#F7A663"/>
<path d="M33.4897 11.9828L36.171 13.3285L36.1713 13.3278L33.4897 11.9828ZM34 10.9654L36.6816 12.3104L38.154 9.37484L35.0975 8.17338L34 10.9654ZM29 9L30.0975 6.20796L26.8732 11.1158L29 9ZM32.9792 13L30.8523 15.1158L33.7912 18.07L35.6604 14.3457L32.9792 13ZM36.1713 13.3278L36.6816 12.3104L31.3184 9.62042L30.8081 10.6378L36.1713 13.3278ZM35.0975 8.17338L30.0975 6.20796L27.9025 11.792L32.9025 13.7575L35.0975 8.17338ZM26.8732 11.1158L30.8523 15.1158L35.106 10.8842L31.1268 6.88422L26.8732 11.1158ZM35.6604 14.3457L36.171 13.3285L30.8085 10.6371L30.2979 11.6543L35.6604 14.3457Z" fill="#F7A663" mask="url(#path-6-inside-3)"/>
<mask id="path-8-inside-4" fill="white">
<path d="M31.9999 15.4997L32 14L27 15.4997L31.9999 17V15.4997Z"/>
</mask>
<path d="M31.9999 15.4997L32 14L27 15.4997L31.9999 17V15.4997Z" fill="#F7A663"/>
<path d="M31.9999 15.4997L28.9999 15.4995V15.4997H31.9999ZM32 14L35 14.0002L35.0003 9.96803L31.1381 11.1265L32 14ZM27 15.4997L26.1381 12.6262L16.5598 15.4991L26.1378 18.3731L27 15.4997ZM31.9999 17L31.1377 19.8734L34.9999 21.0323V17H31.9999ZM34.9999 15.5L35 14.0002L29 13.9998L28.9999 15.4995L34.9999 15.5ZM31.1381 11.1265L26.1381 12.6262L27.8619 18.3732L32.8619 16.8735L31.1381 11.1265ZM26.1378 18.3731L31.1377 19.8734L32.8621 14.1266L27.8622 12.6263L26.1378 18.3731ZM34.9999 17V15.4997H28.9999V17H34.9999Z" fill="#F7A663" mask="url(#path-8-inside-4)"/>
<mask id="path-10-inside-5" fill="white">
<path d="M33.4897 18.7631L32.9794 18L29 21L34 19.526L33.4897 18.7631Z"/>
</mask>
<path d="M33.4897 18.7631L32.9794 18L29 21L34 19.526L33.4897 18.7631Z" fill="#F7A663"/>
<path d="M33.4897 18.7631L30.996 20.4307L30.9961 20.4309L33.4897 18.7631ZM32.9794 18L35.4732 16.3323L33.7084 13.6934L31.1735 15.6045L32.9794 18ZM29 21L27.1941 18.6045L29.8483 23.8776L29 21ZM34 19.526L34.8483 22.4036L38.7621 21.2498L36.4936 17.8581L34 19.526ZM35.9835 17.0954L35.4732 16.3323L30.4857 19.6677L30.996 20.4307L35.9835 17.0954ZM31.1735 15.6045L27.1941 18.6045L30.8059 23.3955L34.7854 20.3955L31.1735 15.6045ZM29.8483 23.8776L34.8483 22.4036L33.1517 16.6484L28.1517 18.1224L29.8483 23.8776ZM36.4936 17.8581L35.9834 17.0952L30.9961 20.4309L31.5064 21.1939L36.4936 17.8581Z" fill="#F7A663" mask="url(#path-10-inside-5)"/>
<mask id="path-12-inside-6" fill="white">
<path d="M34.9656 21L33 26L37 22.0208L35.9826 21.5104L34.9656 21Z"/>
</mask>
<path d="M34.9656 21L33 26L37 22.0208L35.9826 21.5104L34.9656 21Z" fill="#F7A663"/>
<path d="M34.9656 21L36.3113 18.3187L33.3755 16.8453L32.1736 19.9024L34.9656 21ZM33 26L30.208 24.9024L35.1158 28.1268L33 26ZM37 22.0208L39.1158 24.1477L42.0706 21.2082L38.3452 19.3393L37 22.0208ZM35.9826 21.5104L34.6369 24.1917L34.6374 24.1919L35.9826 21.5104ZM32.1736 19.9024L30.208 24.9024L35.792 27.0976L37.7576 22.0976L32.1736 19.9024ZM35.1158 28.1268L39.1158 24.1477L34.8842 19.894L30.8842 23.8732L35.1158 28.1268ZM38.3452 19.3393L37.3278 18.8289L34.6374 24.1919L35.6548 24.7023L38.3452 19.3393ZM37.3283 18.8292L36.3113 18.3187L33.6199 23.6813L34.6369 24.1917L37.3283 18.8292Z" fill="#F7A663" mask="url(#path-12-inside-6)"/>
<mask id="path-14-inside-7" fill="white">
<path d="M38 23L39.5 28L41 23.0002H39.5L38 23Z"/>
</mask>
<path d="M38 23L39.5 28L41 23.0002H39.5L38 23Z" fill="#F7A663"/>
<path d="M38 23L38.0005 20L33.9677 19.9993L35.1265 23.862L38 23ZM39.5 28L36.6265 28.862L39.4999 38.4401L42.3735 28.8621L39.5 28ZM41 23.0002L43.8735 23.8623L45.0321 20.0002H41V23.0002ZM39.5 23.0002L39.4995 26.0002H39.5V23.0002ZM35.1265 23.862L36.6265 28.862L42.3735 27.138L40.8735 22.138L35.1265 23.862ZM42.3735 28.8621L43.8735 23.8623L38.1265 22.1382L36.6265 27.1379L42.3735 28.8621ZM41 20.0002H39.5V26.0002H41V20.0002ZM39.5005 20.0002L38.0005 20L37.9995 26L39.4995 26.0002L39.5005 20.0002Z" fill="#F7A663" mask="url(#path-14-inside-7)"/>
<mask id="path-16-inside-8" fill="white">
<path d="M42.763 21.5104L42 22.0206L45 26L43.5259 21L42.763 21.5104Z"/>
</mask>
<path d="M42.763 21.5104L42 22.0206L45 26L43.5259 21L42.763 21.5104Z" fill="#F7A663"/>
<path d="M42.763 21.5104L44.4305 24.0043L44.431 24.0039L42.763 21.5104ZM42 22.0206L40.3325 19.5267L37.6933 21.2913L39.6045 23.8265L42 22.0206ZM45 26L42.6045 27.8059L47.8776 25.1517L45 26ZM43.5259 21L46.4035 20.1517L45.2496 16.2376L41.8579 18.5065L43.5259 21ZM41.0955 19.0165L40.3325 19.5267L43.6675 24.5144L44.4305 24.0043L41.0955 19.0165ZM39.6045 23.8265L42.6045 27.8059L47.3955 24.1941L44.3955 20.2146L39.6045 23.8265ZM47.8776 25.1517L46.4035 20.1517L40.6484 21.8483L42.1224 26.8483L47.8776 25.1517ZM41.8579 18.5065L41.0949 19.0169L44.431 24.0039L45.194 23.4935L41.8579 18.5065Z" fill="#F7A663" mask="url(#path-16-inside-8)"/>
<mask id="path-18-inside-9" fill="white">
<path d="M45.5105 18.7631L45 19.5258L50 21L46.0207 18L45.5105 18.7631Z"/>
</mask>
<path d="M45.5105 18.7631L45 19.5258L50 21L46.0207 18L45.5105 18.7631Z" fill="#F7A663"/>
<path d="M45.5105 18.7631L48.0036 20.4318L48.0045 20.4304L45.5105 18.7631ZM45 19.5258L42.5069 17.857L40.2365 21.249L44.1516 22.4033L45 19.5258ZM50 21L49.1516 23.8775L51.806 18.6045L50 21ZM46.0207 18L47.8267 15.6045L45.2914 13.6932L43.5267 16.3326L46.0207 18ZM43.0175 17.0943L42.5069 17.857L47.4931 21.1945L48.0036 20.4318L43.0175 17.0943ZM44.1516 22.4033L49.1516 23.8775L50.8484 18.1225L45.8484 16.6482L44.1516 22.4033ZM51.806 18.6045L47.8267 15.6045L44.2147 20.3955L48.194 23.3955L51.806 18.6045ZM43.5267 16.3326L43.0166 17.0957L48.0045 20.4304L48.5146 19.6674L43.5267 16.3326Z" fill="#F7A663" mask="url(#path-18-inside-9)"/>
<mask id="path-20-inside-10" fill="white">
<path d="M52 15.4999L47 14L47.0001 15.4999L47 17L52 15.4999Z"/>
</mask>
<path d="M52 15.4999L47 14L47.0001 15.4999L47 17L52 15.4999Z" fill="#F7A663"/>
<path d="M52 15.4999L52.8621 18.3734L62.4403 15.4997L52.862 12.6264L52 15.4999ZM47 14L47.862 11.1265L43.9997 9.96788L44 14.0002L47 14ZM47.0001 15.4999L50.0001 15.5002L50.0001 15.4997L47.0001 15.4999ZM47 17L44 16.9998L43.9997 21.0323L47.8621 19.8735L47 17ZM52.862 12.6264L47.862 11.1265L46.138 16.8735L51.138 18.3734L52.862 12.6264ZM44 14.0002L44.0001 15.5002L50.0001 15.4997L50 13.9998L44 14.0002ZM44.0001 15.4997L44 16.9998L50 17.0002L50.0001 15.5002L44.0001 15.4997ZM47.8621 19.8735L52.8621 18.3734L51.1379 12.6264L46.1379 14.1265L47.8621 19.8735Z" fill="#F7A663" mask="url(#path-20-inside-10)"/>
<mask id="path-22-inside-11" fill="white">
<path d="M45.5105 11.9827L46.0208 13L50 9L45 10.9656L45.5105 11.9827Z"/>
</mask>
<path d="M45.5105 11.9827L46.0208 13L50 9L45 10.9656L45.5105 11.9827Z" fill="#F7A663"/>
<path d="M45.5105 11.9827L48.1921 10.6377L48.1917 10.637L45.5105 11.9827ZM46.0208 13L43.3392 14.345L45.208 18.0708L48.1476 15.1158L46.0208 13ZM50 9L52.1268 11.1158L48.9024 6.20799L50 9ZM45 10.9656L43.9024 8.17355L40.8452 9.37539L42.3188 12.3113L45 10.9656ZM42.8289 13.3278L43.3392 14.345L48.7024 11.655L48.1921 10.6377L42.8289 13.3278ZM48.1476 15.1158L52.1268 11.1158L47.8732 6.88421L43.8939 10.8842L48.1476 15.1158ZM48.9024 6.20799L43.9024 8.17355L46.0976 13.7576L51.0976 11.792L48.9024 6.20799ZM42.3188 12.3113L42.8293 13.3285L48.1917 10.637L47.6812 9.61982L42.3188 12.3113Z" fill="#F7A663" mask="url(#path-22-inside-11)"/>
<mask id="path-24-inside-12" fill="white">
<path d="M43.5259 10L45 5L42 8.97922L42.763 9.48961L43.5259 10Z"/>
</mask>
<path d="M43.5259 10L45 5L42 8.97922L42.763 9.48961L43.5259 10Z" fill="#F7A663"/>
<path d="M43.5259 10L41.8578 12.4935L45.2495 14.7625L46.4035 10.8483L43.5259 10ZM45 5L47.8776 5.84834L42.6045 3.194L45 5ZM42 8.97922L39.6045 7.17322L37.6936 9.7079L40.332 11.4728L42 8.97922ZM42.763 9.48961L44.4312 6.99615L44.431 6.99604L42.763 9.48961ZM46.4035 10.8483L47.8776 5.84834L42.1224 4.15166L40.6484 9.15166L46.4035 10.8483ZM42.6045 3.194L39.6045 7.17322L44.3955 10.7852L47.3955 6.806L42.6045 3.194ZM40.332 11.4728L41.0951 11.9832L44.431 6.99604L43.668 6.48565L40.332 11.4728ZM41.0949 11.9831L41.8578 12.4935L45.1941 7.50654L44.4312 6.99615L41.0949 11.9831Z" fill="#F7A663" mask="url(#path-24-inside-12)"/>
<path d="M44.5 15.4999C44.5 17.7487 43.2012 19.537 41.5 20.2107V10.7893C43.2012 11.4629 44.5 13.2512 44.5 15.4999Z" fill="#F7A663" stroke="#F7A663" stroke-width="3"/>
<path d="M38.5 20.314C36.1356 19.7102 34.5 17.7153 34.5 15.4999C34.5 13.2847 36.1356 11.2898 38.5 10.686V20.314Z" fill="#F7A663" stroke="#F7A663" stroke-width="3"/>
</svg>
