<svg width="100%" height="100%" viewBox="0 0 60 32" fill="none" xmlns="http://www.w3.org/2000/svg">
<path d="M46 29.25H14C6.74211 29.25 0.75 22.9068 0.75 15C0.75 7.09321 6.74211 0.75 14 0.75H46C53.2579 0.75 59.25 7.09321 59.25 15C59.25 22.9068 53.2579 29.25 46 29.25ZM56.75 15C56.75 8.72751 51.9761 3.53571 46 3.53571C40.0239 3.53571 35.25 8.72751 35.25 15C35.25 21.2725 40.0239 26.4643 46 26.4643C51.9761 26.4643 56.75 21.2725 56.75 15Z" fill="white" stroke="black" stroke-width="1.5"/>
<path d="M19.5136 16.7075C28.7711 25.9149 39.377 15.4685 29.8457 23.8844C24.8811 27.8265 17.5308 26.8339 13.4283 21.6674C9.32574 16.5008 10.0246 9.11677 14.9892 5.17464C22.9999 -1.18636 11.329 8.56717 19.5136 16.7075Z" fill="black"/>
</svg>
