<svg width="100%" height="100%" viewBox="0 0 60 28" fill="none" xmlns="http://www.w3.org/2000/svg">
<path d="M14 4C8.486 4 4 8.486 4 14C4 19.514 8.486 24 14 24C19.514 24 24 19.514 24 14C24 8.486 19.514 4 14 4ZM14 22C9.589 22 6 18.411 6 14C6 9.589 9.589 6 14 6C18.411 6 22 9.589 22 14C22 18.411 18.411 22 14 22Z" fill="black"/>
<path d="M46 0H14C6.28 0 0 6.28 0 14C0 21.72 6.28 28 14 28H46C53.72 28 60 21.72 60 14C60 6.28 53.72 0 46 0ZM46 26H14C7.383 26 2 20.617 2 14C2 7.383 7.383 2 14 2H46C52.617 2 58 7.383 58 14C58 20.617 52.617 26 46 26Z" fill="black"/>
</svg>
