<svg width="200" height="200" viewBox="0 0 200 200" fill="none" xmlns="http://www.w3.org/2000/svg">
<path d="M183.333 41.379H150V31.0343C149.991 22.8063 146.827 14.918 141.203 9.09994C135.579 3.28188 127.954 0.00924088 120 0H80C72.0462 0.00924088 64.4208 3.28188 58.7967 9.09994C53.1725 14.918 50.0089 22.8063 50 31.0343V41.379H16.6667C12.2479 41.3843 8.01166 43.2025 4.88716 46.4347C1.76265 49.6669 0.00507278 54.0492 0 58.6203V196.552C0 197.466 0.351189 198.343 0.976311 198.99C1.60143 199.637 2.44928 200 3.33333 200H196.667C197.551 200 198.399 199.637 199.024 198.99C199.649 198.343 200 197.466 200 196.552V58.6216C199.995 54.0503 198.238 49.6676 195.113 46.435C191.989 43.2025 187.752 41.3842 183.333 41.379ZM193.333 58.6203V113.792H130V103.448C130 102.533 129.649 101.656 129.024 101.009C128.399 100.363 127.551 99.9993 126.667 99.9993H100C99.1159 99.9993 98.2681 100.363 97.643 101.009C97.0179 101.656 96.6667 102.533 96.6667 103.448V113.792H33.3333V58.6203C33.3371 54.8877 32.1635 51.2557 29.9908 48.2756H183.333C185.985 48.2786 188.526 49.3695 190.401 51.3089C192.276 53.2482 193.33 55.8777 193.333 58.6203ZM60 120.689H96.6667V131.034C96.6667 135.606 98.4226 139.992 101.548 143.225C104.674 146.458 108.913 148.275 113.333 148.275C117.754 148.275 121.993 146.458 125.118 143.225C128.244 139.992 130 135.606 130 131.034V120.689H166.667V172.413H60V120.689ZM103.333 120.689H123.333V131.034C123.333 133.777 122.28 136.408 120.404 138.348C118.529 140.289 115.985 141.378 113.333 141.378C110.681 141.378 108.138 140.289 106.262 138.348C104.387 136.408 103.333 133.777 103.333 131.034V120.689ZM123.333 113.792H103.333V106.896H123.333V113.792ZM130 41.379H70V31.0343C70.003 28.2916 71.0575 25.6622 72.9322 23.7228C74.8069 21.7835 77.3487 20.6926 80 20.6895H120C122.651 20.6926 125.193 21.7835 127.068 23.7228C128.943 25.6622 129.997 28.2916 130 31.0343V41.379ZM136.667 41.379V34.4825H143.333V41.379H136.667ZM80 6.89651H120C125.608 6.90427 131.027 8.9986 135.267 12.7971C139.506 16.5955 142.283 21.8447 143.091 27.586H136.331C135.558 23.6946 133.511 20.198 130.536 17.6855C127.562 15.1729 123.84 13.7982 120 13.793H80C76.1596 13.7982 72.4384 15.1729 69.4636 17.6855C66.4889 20.198 64.4424 23.6946 63.6692 27.586H56.9087C57.717 21.8449 60.4944 16.5961 64.7338 12.7979C68.9732 8.99966 74.3917 6.90551 80 6.8978V6.89651ZM56.6667 34.4825H63.3333V41.379H56.6667V34.4825ZM16.6667 48.2756C19.3179 48.2786 21.8597 49.3695 23.7344 51.3089C25.6092 53.2482 26.6637 55.8777 26.6667 58.6203V68.9651H6.66667V58.6203C6.66964 55.8777 7.72417 53.2482 9.59889 51.3089C11.4736 49.3695 14.0154 48.2786 16.6667 48.2756ZM6.66667 75.8616H13.3333V193.102H6.66667V75.8616ZM20 193.102V75.8616H26.6667V193.102H20ZM33.3333 193.102V120.689H53.3333V175.861C53.3333 176.775 53.6845 177.653 54.3096 178.299C54.9348 178.946 55.7826 179.309 56.6667 179.309H170C170.884 179.309 171.732 178.946 172.357 178.299C172.982 177.653 173.333 176.775 173.333 175.861V120.689H193.333V193.102H33.3333Z" fill="white"/>
</svg>
