<svg width="200" height="200" viewBox="0 0 200 200" fill="none" xmlns="http://www.w3.org/2000/svg">
<path d="M170.711 29.2892C151.823 10.4019 126.711 0 100 0C73.288 0 48.1766 10.4019 29.2892 29.2892C10.4019 48.1766 0 73.288 0 100C0 126.711 10.4019 151.823 29.2892 170.711C48.1766 189.598 73.288 200 100 200C126.711 200 151.823 189.598 170.711 170.711C189.598 151.823 200 126.711 200 100C200 73.288 189.598 48.1766 170.711 29.2892ZM50.1328 172.807C54.3152 148.726 75.1831 130.963 100 130.963C124.818 130.963 145.685 148.726 149.867 172.807C135.669 182.562 118.491 188.281 100 188.281C81.5094 188.281 64.3311 182.562 50.1328 172.807ZM68.2037 87.4481C68.2037 69.9142 82.4677 55.6519 100 55.6519C117.532 55.6519 131.796 69.9158 131.796 87.4481C131.796 104.98 117.532 119.244 100 119.244C82.4677 119.244 68.2037 104.98 68.2037 87.4481ZM160.017 164.679C156.863 153.468 150.6 143.297 141.82 135.352C136.433 130.476 130.302 126.63 123.711 123.918C135.625 116.147 143.517 102.702 143.517 87.4481C143.517 63.4537 123.994 43.9331 100 43.9331C76.0056 43.9331 56.485 63.4537 56.485 87.4481C56.485 102.702 64.3768 116.147 76.2894 123.918C69.6991 126.63 63.5666 130.475 58.1802 135.35C49.4019 143.295 43.1366 153.467 39.9826 164.677C22.6105 148.544 11.7188 125.522 11.7188 100C11.7188 51.3214 51.3214 11.7188 100 11.7188C148.679 11.7188 188.281 51.3214 188.281 100C188.281 125.523 177.39 148.546 160.017 164.679Z" fill="black"/>
</svg>
