<?xml version="1.0" encoding="UTF-8" standalone="no"?>
<svg
   xmlns:dc="http://purl.org/dc/elements/1.1/"
   xmlns:cc="http://creativecommons.org/ns#"
   xmlns:rdf="http://www.w3.org/1999/02/22-rdf-syntax-ns#"
   xmlns:svg="http://www.w3.org/2000/svg"
   xmlns="http://www.w3.org/2000/svg"
   xmlns:sodipodi="http://sodipodi.sourceforge.net/DTD/sodipodi-0.dtd"
   xmlns:inkscape="http://www.inkscape.org/namespaces/inkscape"
   version="1.1"
   id="svg2"
   xml:space="preserve"
   width="150"
   height="50"
   viewBox="0 0 4000 2000"
   sodipodi:docname="vectorstock_29197211.ai"><metadata
     id="metadata8"><rdf:RDF><cc:Work
         rdf:about=""><dc:format>image/svg+xml</dc:format><dc:type
           rdf:resource="http://purl.org/dc/dcmitype/StillImage" /></cc:Work></rdf:RDF></metadata><defs
     id="defs6"><clipPath
       clipPathUnits="userSpaceOnUse"
       id="clipPath20"><path
         d="M 0,1500 H 3000 V 0 H 0 Z"
         id="path18" /></clipPath></defs><sodipodi:namedview
     pagecolor="#ffffff"
     bordercolor="#666666"
     borderopacity="1"
     objecttolerance="10"
     gridtolerance="10"
     guidetolerance="10"
     inkscape:pageopacity="0"
     inkscape:pageshadow="2"
     inkscape:window-width="640"
     inkscape:window-height="480"
     id="namedview4" /><g
     id="g10"
     inkscape:groupmode="layer"
     inkscape:label="vectorstock_29197211"
     transform="matrix(1.3333333,0,0,-1.3333333,0,2000)"><path
       d="M 0,0 H 3000 V 1500 H 0 Z"
       style="fill:#ffffff;fill-opacity:1;fill-rule:nonzero;stroke:none"
       id="path12" /><g
       id="g14"><g
         id="g16"
         clip-path="url(#clipPath20)"><g
           id="g22"
           transform="translate(1500,1228.8125)"><path
             d="m 0,0 c -160.009,0 -289.391,-127.947 -291.08,-287.939 -0.709,-67.367 21.46,-129.517 59.229,-179.173 2.871,-3.799 5.859,-7.513 8.915,-11.16 38.952,-46.313 61.069,-104.427 61.069,-164.94 v -3.359 c 0,-23.182 11.144,-43.764 28.366,-56.663 7.462,-5.589 12.055,-14.183 12.055,-23.502 V -782.1 c 0,-13.152 6.483,-24.801 16.428,-31.893 3.917,-2.803 6.365,-7.21 6.365,-12.022 v -109.964 c 0,-11.955 9.691,-21.646 21.645,-21.646 H 0 77.008 c 11.954,0 21.645,9.691 21.645,21.646 v 109.964 c 0,4.812 2.449,9.219 6.366,12.022 9.944,7.092 16.427,18.741 16.427,31.893 v 55.364 c 0,9.319 4.593,17.913 12.056,23.502 17.222,12.899 28.364,33.481 28.364,56.663 v 3.359 c 0,60.513 22.118,118.627 61.07,164.94 3.056,3.647 6.044,7.361 8.915,11.16 37.769,49.656 59.938,111.806 59.229,179.173 C 289.392,-127.947 160.01,0 0,0 Z"
             style="fill:none;stroke:#e2c675;stroke-width:16;stroke-linecap:butt;stroke-linejoin:miter;stroke-miterlimit:10;stroke-dasharray:none;stroke-opacity:1"
             id="path24" /></g><g
           id="g26"
           transform="translate(1500,974.9727)"><path
             d="m 0,0 c 14.107,0.878 29.242,-2.592 39.687,-5.569 7.459,-2.126 15.304,-2.443 22.909,-0.914 l 45.649,9.176 c 5.146,1.035 9.475,-3.895 7.767,-8.857 C 99.853,-53.106 38.588,-232.463 39.644,-250.406 H 13.305 c 0,0 -5.184,6.314 -13.305,8.948"
             style="fill:none;stroke:#e2c675;stroke-width:16;stroke-linecap:butt;stroke-linejoin:miter;stroke-miterlimit:10;stroke-dasharray:none;stroke-opacity:1"
             id="path28" /></g><g
           id="g30"
           transform="translate(1500,974.9727)"><path
             d="m 0,0 c -14.107,0.878 -29.242,-2.592 -39.686,-5.569 -7.46,-2.126 -15.305,-2.443 -22.91,-0.914 l -45.649,9.176 c -5.146,1.035 -9.475,-3.895 -7.766,-8.857 16.158,-46.942 77.423,-226.299 76.367,-244.242 h 26.339 c 0,0 5.184,6.314 13.305,8.948"
             style="fill:none;stroke:#e2c675;stroke-width:16;stroke-linecap:butt;stroke-linejoin:miter;stroke-miterlimit:10;stroke-dasharray:none;stroke-opacity:1"
             id="path32" /></g><g
           id="g34"
           transform="translate(1460.3564,724.5723)"><path
             d="M 0,0 C -38.006,-28.567 -3.326,-65.645 -3.326,-65.645 V -213.902"
             style="fill:none;stroke:#e2c675;stroke-width:16;stroke-linecap:butt;stroke-linejoin:miter;stroke-miterlimit:10;stroke-dasharray:none;stroke-opacity:1"
             id="path36" /></g><g
           id="g38"
           transform="translate(1539.1201,724.5723)"><path
             d="M 0,0 C 38.006,-28.567 3.326,-65.645 3.326,-65.645 V -213.902"
             style="fill:none;stroke:#e2c675;stroke-width:16;stroke-linecap:butt;stroke-linejoin:miter;stroke-miterlimit:10;stroke-dasharray:none;stroke-opacity:1"
             id="path40" /></g><g
           id="g42"
           transform="translate(1482.5098,724.5664)"><path
             d="m 0,0 v 56.933 c 0,0 -12.427,13.304 -0.996,24.482 h 0.017"
             style="fill:none;stroke:#e2c675;stroke-width:16;stroke-linecap:butt;stroke-linejoin:miter;stroke-miterlimit:10;stroke-dasharray:none;stroke-opacity:1"
             id="path44" /></g><g
           id="g46"
           transform="translate(1518.0508,805.8799)"><path
             d="M 0,0 C 11.278,-11.144 -1.098,-24.381 -1.098,-24.381 V -81.313"
             style="fill:none;stroke:#e2c675;stroke-width:16;stroke-linecap:butt;stroke-linejoin:miter;stroke-miterlimit:10;stroke-dasharray:none;stroke-opacity:1"
             id="path48" /></g><g
           id="g50"
           transform="translate(1523.0596,808.5728)"><path
             d="m 0,0 c 0,-2.392 -10.324,-4.331 -23.06,-4.331 -12.735,0 -23.059,1.939 -23.059,4.331 0,2.392 10.324,4.331 23.059,4.331 C -10.324,4.331 0,2.392 0,0 Z"
             style="fill:none;stroke:#e2c675;stroke-width:16;stroke-linecap:butt;stroke-linejoin:miter;stroke-miterlimit:10;stroke-dasharray:none;stroke-opacity:1"
             id="path52" /></g><g
           id="g54"
           transform="translate(1377.2031,510.6699)"><path
             d="m 0,0 h 79.827 85.416 80.351"
             style="fill:none;stroke:#e2c675;stroke-width:16;stroke-linecap:butt;stroke-linejoin:miter;stroke-miterlimit:10;stroke-dasharray:none;stroke-opacity:1"
             id="path56" /></g><g
           id="g58"
           transform="translate(630.417,1228.8125)"><path
             d="m 0,0 c -160.009,0 -289.391,-127.947 -291.08,-287.939 -0.709,-67.367 21.46,-129.517 59.229,-179.173 2.871,-3.799 5.859,-7.513 8.915,-11.16 38.952,-46.313 61.07,-104.427 61.07,-164.94 v -3.359 c 0,-23.182 11.143,-43.764 28.365,-56.663 7.462,-5.589 12.055,-14.183 12.055,-23.502 V -782.1 c 0,-13.152 6.483,-24.801 16.428,-31.893 3.917,-2.803 6.365,-7.21 6.365,-12.022 v -109.964 c 0,-11.955 9.692,-21.646 21.645,-21.646 H 0 77.008 c 11.954,0 21.645,9.691 21.645,21.646 v 109.964 c 0,4.812 2.449,9.219 6.366,12.022 9.944,7.092 16.427,18.741 16.427,31.893 v 55.364 c 0,9.319 4.593,17.913 12.056,23.502 17.222,12.899 28.365,33.481 28.365,56.663 v 3.359 c 0,60.513 22.118,118.627 61.069,164.94 3.056,3.647 6.044,7.361 8.915,11.16 37.769,49.656 59.938,111.806 59.229,179.173 C 289.392,-127.947 160.01,0 0,0 Z"
             style="fill:none;stroke:#000000;stroke-width:16;stroke-linecap:butt;stroke-linejoin:miter;stroke-miterlimit:10;stroke-dasharray:none;stroke-opacity:1"
             id="path60" /></g><g
           id="g62"
           transform="translate(630.417,974.9727)"><path
             d="m 0,0 c 14.107,0.878 29.242,-2.592 39.687,-5.569 7.459,-2.126 15.304,-2.443 22.909,-0.914 l 45.65,9.176 c 5.145,1.035 9.474,-3.895 7.766,-8.857 C 99.853,-53.106 38.588,-232.463 39.644,-250.406 H 13.305 c 0,0 -5.183,6.314 -13.305,8.948"
             style="fill:none;stroke:#000000;stroke-width:16;stroke-linecap:butt;stroke-linejoin:miter;stroke-miterlimit:10;stroke-dasharray:none;stroke-opacity:1"
             id="path64" /></g><g
           id="g66"
           transform="translate(630.417,974.9727)"><path
             d="m 0,0 c -14.107,0.878 -29.242,-2.592 -39.686,-5.569 -7.46,-2.126 -15.305,-2.443 -22.909,-0.914 l -45.65,9.176 c -5.146,1.035 -9.474,-3.895 -7.766,-8.857 16.159,-46.942 77.423,-226.299 76.368,-244.242 h 26.339 c 0,0 5.183,6.314 13.304,8.948"
             style="fill:none;stroke:#000000;stroke-width:16;stroke-linecap:butt;stroke-linejoin:miter;stroke-miterlimit:10;stroke-dasharray:none;stroke-opacity:1"
             id="path68" /></g><g
           id="g70"
           transform="translate(590.7734,724.5723)"><path
             d="M 0,0 C -38.006,-28.567 -3.326,-65.645 -3.326,-65.645 V -213.902"
             style="fill:none;stroke:#000000;stroke-width:16;stroke-linecap:butt;stroke-linejoin:miter;stroke-miterlimit:10;stroke-dasharray:none;stroke-opacity:1"
             id="path72" /></g><g
           id="g74"
           transform="translate(669.5376,724.5723)"><path
             d="M 0,0 C 38.005,-28.567 3.326,-65.645 3.326,-65.645 V -213.902"
             style="fill:none;stroke:#000000;stroke-width:16;stroke-linecap:butt;stroke-linejoin:miter;stroke-miterlimit:10;stroke-dasharray:none;stroke-opacity:1"
             id="path76" /></g><g
           id="g78"
           transform="translate(612.9268,724.5664)"><path
             d="m 0,0 v 56.933 c 0,0 -12.426,13.304 -0.996,24.482 h 0.017"
             style="fill:none;stroke:#000000;stroke-width:16;stroke-linecap:butt;stroke-linejoin:miter;stroke-miterlimit:10;stroke-dasharray:none;stroke-opacity:1"
             id="path80" /></g><g
           id="g82"
           transform="translate(648.4678,805.8799)"><path
             d="M 0,0 C 11.278,-11.144 -1.098,-24.381 -1.098,-24.381 V -81.313"
             style="fill:none;stroke:#000000;stroke-width:16;stroke-linecap:butt;stroke-linejoin:miter;stroke-miterlimit:10;stroke-dasharray:none;stroke-opacity:1"
             id="path84" /></g><g
           id="g86"
           transform="translate(653.4766,808.5728)"><path
             d="m 0,0 c 0,-2.392 -10.324,-4.331 -23.06,-4.331 -12.735,0 -23.059,1.939 -23.059,4.331 0,2.392 10.324,4.331 23.059,4.331 C -10.324,4.331 0,2.392 0,0 Z"
             style="fill:none;stroke:#000000;stroke-width:16;stroke-linecap:butt;stroke-linejoin:miter;stroke-miterlimit:10;stroke-dasharray:none;stroke-opacity:1"
             id="path88" /></g><g
           id="g90"
           transform="translate(507.6201,510.6699)"><path
             d="m 0,0 h 79.827 85.416 80.351"
             style="fill:none;stroke:#000000;stroke-width:16;stroke-linecap:butt;stroke-linejoin:miter;stroke-miterlimit:10;stroke-dasharray:none;stroke-opacity:1"
             id="path92" /></g><g
           id="g94"
           transform="translate(2247.2168,510.9131)"><path
             d="M 0,0 C 0.21,-0.66 0.394,-1.33 0.556,-2.006 0.581,-2.108 0.6,-2.212 0.623,-2.314 0.746,-2.856 0.854,-3.402 0.946,-3.953 0.978,-4.14 1.005,-4.327 1.032,-4.516 1.104,-5.007 1.162,-5.501 1.207,-5.998 1.225,-6.187 1.246,-6.376 1.26,-6.566 1.308,-7.235 1.339,-7.907 1.339,-8.585 v -55.307 c 0,-13.138 6.477,-24.777 16.412,-31.861 3.913,-2.8 6.358,-7.202 6.358,-12.009 v -109.853 c 0,-11.943 9.682,-21.623 21.623,-21.623 h 76.93 76.93 c 11.941,0 21.623,9.68 21.623,21.623 v 109.853 c 0,4.807 2.445,9.209 6.358,12.009 9.936,7.084 16.412,18.723 16.412,31.861 v 55.307 c 0,0.678 0.032,1.35 0.079,2.019 0.014,0.19 0.035,0.379 0.052,0.568 0.046,0.497 0.104,0.991 0.176,1.482 0.027,0.188 0.055,0.375 0.086,0.563 0.092,0.553 0.2,1.099 0.324,1.643 0.024,0.101 0.041,0.203 0.066,0.302 0.162,0.677 0.346,1.347 0.556,2.008 z"
             style="fill:#565555;fill-opacity:1;fill-rule:nonzero;stroke:none"
             id="path96" /></g><g
           id="g98"
           transform="translate(2491.333,504.915)"><path
             d="M 0,0 C -0.018,-0.189 -0.038,-0.378 -0.052,-0.568 -0.038,-0.378 -0.017,-0.189 0,0"
             style="fill:#000000;fill-opacity:1;fill-rule:nonzero;stroke:none"
             id="path100" /></g><g
           id="g102"
           transform="translate(2248.4766,504.3467)"><path
             d="M 0,0 C -0.014,0.19 -0.035,0.379 -0.053,0.568 -0.035,0.379 -0.014,0.19 0,0"
             style="fill:#000000;fill-opacity:1;fill-rule:nonzero;stroke:none"
             id="path104" /></g><g
           id="g106"
           transform="translate(2248.249,506.3975)"><path
             d="M 0,0 C -0.027,0.188 -0.055,0.376 -0.086,0.562 -0.056,0.376 -0.027,0.187 0,0"
             style="fill:#000000;fill-opacity:1;fill-rule:nonzero;stroke:none"
             id="path108" /></g><g
           id="g110"
           transform="translate(2491.9844,508.9053)"><path
             d="M 0,0 C -0.024,-0.1 -0.042,-0.201 -0.065,-0.302 -0.043,-0.201 -0.024,-0.1 0,0"
             style="fill:#000000;fill-opacity:1;fill-rule:nonzero;stroke:none"
             id="path112" /></g><g
           id="g114"
           transform="translate(2491.5947,506.96)"><path
             d="M 0,0 C -0.031,-0.187 -0.059,-0.375 -0.086,-0.562 -0.06,-0.375 -0.031,-0.187 0,0"
             style="fill:#000000;fill-opacity:1;fill-rule:nonzero;stroke:none"
             id="path116" /></g><g
           id="g118"
           transform="translate(2369.8789,1228.3257)"><path
             d="m 0,0 c -159.847,0 -289.097,-127.817 -290.784,-287.646 -0.708,-67.299 21.438,-129.386 59.169,-178.991 2.867,-3.795 5.853,-7.506 8.906,-11.149 38.911,-46.265 61.007,-104.321 61.007,-164.772 v -3.357 c 0,-23.158 11.132,-43.718 28.336,-56.604 5.085,-3.809 8.833,-9.015 10.704,-14.894 h 79.736 85.329 80.259 c 1.871,5.879 5.618,11.085 10.704,14.894 17.204,12.886 28.336,33.446 28.336,56.604 v 3.357 c 0,60.451 22.096,118.507 61.007,164.772 3.053,3.643 6.038,7.354 8.906,11.149 37.731,49.605 59.877,111.692 59.169,178.991 C 289.097,-127.817 159.847,0 0,0"
             style="fill:#f9a01b;fill-opacity:1;fill-rule:nonzero;stroke:none"
             id="path120" /></g><g
           id="g122"
           transform="translate(2247.8398,508.5986)"><path
             d="M 0,0 C -0.023,0.103 -0.042,0.206 -0.067,0.309 -0.043,0.206 -0.023,0.103 0,0"
             style="fill:#000000;fill-opacity:1;fill-rule:nonzero;stroke:none"
             id="path124" /></g><g
           id="g126"
           transform="translate(2612.4678,939.9204)"><path
             d="m 0,0 v 0 c -4.548,0 -8.259,3.608 -8.413,8.154 -1.507,44.397 -15.31,86.735 -40.22,123.36 -2.557,3.76 -1.691,8.863 1.979,11.547 l 0.001,0.001 c 3.848,2.814 9.28,1.889 11.962,-2.053 C -7.972,101.729 6.833,56.325 8.444,8.717 8.605,3.952 4.768,0 0,0"
             style="fill:#ffffff;fill-opacity:1;fill-rule:nonzero;stroke:none"
             id="path128" /></g><g
           id="g130"
           transform="translate(2365.3584,1182.3018)"><path
             d="m 0,0 v 0 c 0,-4.485 -3.515,-8.169 -7.993,-8.405 -120.714,-6.379 -217.492,-104.554 -221.66,-225.824 -0.157,-4.543 -3.866,-8.152 -8.412,-8.152 h -0.003 c -4.767,0 -8.606,3.953 -8.443,8.717 4.458,130.012 108.228,235.277 237.644,242.1 C -4.048,8.69 0,4.827 0,0"
             style="fill:#ffffff;fill-opacity:1;fill-rule:nonzero;stroke:none"
             id="path132" /></g></g></g></g></svg>
